<svg id="Layer_1" data-name="Layer 1" xmlns="http://www.w3.org/2000/svg" viewBox="0 0 744.5 139"><defs><style>.cls-1{fill:#ce0000;}.cls-2{fill:#fcfcfc;}</style></defs><title>codeover</title><path d="M223.3,36.8a33.5,33.5,0,0,1,8.9,1.2,27,27,0,0,1,14.7,9.5,26.1,26.1,0,0,1,4.5,8.4l-13,6a17.4,17.4,0,0,0-7-8.5A20.1,20.1,0,0,0,221,50.5a32.5,32.5,0,0,0-6.9.8,25.1,25.1,0,0,0-6.3,2.5,15.6,15.6,0,0,0-4.7,4.1,12,12,0,0,0-2.4,5.8l-4.4,32.1c0,.7-.1,1.3-.1,1.8a7.7,7.7,0,0,0,1,4,10.2,10.2,0,0,0,3.5,4.2,15.8,15.8,0,0,0,5.6,2.4,23.9,23.9,0,0,0,6.6.9,25.1,25.1,0,0,0,20.5-11.4l11.5,5.7a45.3,45.3,0,0,1-7,8.5,40.9,40.9,0,0,1-8.4,6.1,39.9,39.9,0,0,1-9.2,3.6,37.1,37.1,0,0,1-9.3,1.2,39.5,39.5,0,0,1-11.5-1.7,26.1,26.1,0,0,1-9.5-5,21.8,21.8,0,0,1-6.1-8.5,19.2,19.2,0,0,1-1.5-7.7,20.3,20.3,0,0,1,.4-4.1l4.3-32.1A26.3,26.3,0,0,1,191.6,52a29.6,29.6,0,0,1,8.5-8.4,38.2,38.2,0,0,1,11-5.1A46,46,0,0,1,223.3,36.8Z" transform="translate(-18 -13)"/><path d="M295.5,36.8a45.1,45.1,0,0,1,12.3,1.7,31,31,0,0,1,10.1,5.1,19.7,19.7,0,0,1,6.4,8.4,18.6,18.6,0,0,1,1.6,7.9,25.6,25.6,0,0,1-.3,3.9L321,95.6a25.8,25.8,0,0,1-4.6,11.9,32.8,32.8,0,0,1-8.9,8.5,40.3,40.3,0,0,1-11.6,5,45.7,45.7,0,0,1-12.6,1.8A41.6,41.6,0,0,1,271,121a29.9,29.9,0,0,1-10.1-5,20.9,20.9,0,0,1-6.3-8.6,20.1,20.1,0,0,1-1.5-7.8,29.1,29.1,0,0,1,.3-4L258,63.8A26.5,26.5,0,0,1,262.5,52a31.9,31.9,0,0,1,8.8-8.4,41.2,41.2,0,0,1,11.5-5.1A50.4,50.4,0,0,1,295.5,36.8ZM267,97.1a10.2,10.2,0,0,0,.9,4.4,11.2,11.2,0,0,0,4,4.1,19.4,19.4,0,0,0,6,2.6,30,30,0,0,0,7.4.9,32.2,32.2,0,0,0,7.6-.9,28.2,28.2,0,0,0,6.9-2.6,17.8,17.8,0,0,0,5.2-4.2,11,11,0,0,0,2.6-5.9l4.5-31.3c0-.6.1-1.2.1-1.8a8.6,8.6,0,0,0-1.1-4.3,10.1,10.1,0,0,0-3.9-4.3,20,20,0,0,0-6.2-2.4,35.7,35.7,0,0,0-7.4-.8,38.2,38.2,0,0,0-7.5.8,29.7,29.7,0,0,0-6.9,2.5,17.4,17.4,0,0,0-5.1,4.2,11.5,11.5,0,0,0-2.5,6.1l-4.5,31.3A8.6,8.6,0,0,0,267,97.1Z" transform="translate(-18 -13)"/><path d="M372.6,38a43.4,43.4,0,0,1,11.6,1.5,24.2,24.2,0,0,1,9.3,4.8,19.2,19.2,0,0,1,5.8,8.2,19.5,19.5,0,0,1,1.3,7.4,32.5,32.5,0,0,1-.3,4.4l-4.5,31.4a28.6,28.6,0,0,1-4.2,11.8,30.4,30.4,0,0,1-8,8,35.4,35.4,0,0,1-10.7,4.6,48.1,48.1,0,0,1-12,1.5H331L342.6,38Zm-9.8,69.9a29.6,29.6,0,0,0,6.8-.7,18,18,0,0,0,5.9-2.1,12.5,12.5,0,0,0,4.4-3.8,12.2,12.2,0,0,0,2.2-5.6l4.5-31.4c0-.6.1-1.2.1-1.9a10,10,0,0,0-.7-3.9,10.6,10.6,0,0,0-3.4-3.9,15.4,15.4,0,0,0-5.2-2.2,28.7,28.7,0,0,0-6.7-.7H354.3l-7.9,56.2Z" transform="translate(-18 -13)"/><path d="M426.4,72.9h38.1l-1.9,13.7H424.5l-3,21.3H463l-1.9,13.7H405.9l11.7-83.7h55.2l-1.9,13.7H429.4Z" transform="translate(-18 -13)"/><path d="M517.3,36.8a44.9,44.9,0,0,1,12.2,1.7,30.5,30.5,0,0,1,10.2,5.1,20.5,20.5,0,0,1,6.4,8.4,20.2,20.2,0,0,1,1.5,7.9c0,1.3-.1,2.6-.2,3.9l-4.6,31.8a27,27,0,0,1-4.6,11.9,34.2,34.2,0,0,1-8.9,8.5,41.6,41.6,0,0,1-11.6,5,45.8,45.8,0,0,1-12.7,1.8,41.4,41.4,0,0,1-12.2-1.8,29,29,0,0,1-10.1-5,21.2,21.2,0,0,1-6.4-8.6,22.1,22.1,0,0,1-1.4-7.8c0-1.2.1-2.6.2-4l4.6-31.8A27.8,27.8,0,0,1,484.3,52a30.6,30.6,0,0,1,8.8-8.4,39.9,39.9,0,0,1,11.5-5.1A49.8,49.8,0,0,1,517.3,36.8ZM488.7,97.1a8.9,8.9,0,0,0,1,4.4,10.9,10.9,0,0,0,3.9,4.1,20,20,0,0,0,6.1,2.6,29.2,29.2,0,0,0,7.3.9,33.1,33.1,0,0,0,7.7-.9,27.5,27.5,0,0,0,6.8-2.6,16.6,16.6,0,0,0,5.2-4.2,11,11,0,0,0,2.6-5.9l4.5-31.3a10.9,10.9,0,0,0,.1-1.8,8.5,8.5,0,0,0-1-4.3,10.3,10.3,0,0,0-4-4.3,19.1,19.1,0,0,0-6.2-2.4,34.7,34.7,0,0,0-7.3-.8,40.1,40.1,0,0,0-7.6.8,27.4,27.4,0,0,0-6.8,2.5,16.6,16.6,0,0,0-5.2,4.2,12.4,12.4,0,0,0-2.5,6.1l-4.5,31.3A8.6,8.6,0,0,0,488.7,97.1Z" transform="translate(-18 -13)"/><path d="M579.5,91.1a9.5,9.5,0,0,0,.2,2.5c.2,1.6.4,3.5.6,5.4l1,7.8h1.2l5.7-15.9L614.3,38h14.4l-41.8,83.6H572.5L554,38h14.5Z" transform="translate(-18 -13)"/><path d="M645.2,72.9h38.1l-1.9,13.7H643.3l-3,21.3h41.5l-1.9,13.7H624.7l11.7-83.7h55.2l-1.9,13.7H648.2Z" transform="translate(-18 -13)"/><path d="M736.7,38a39.4,39.4,0,0,1,11.2,1.5,21,21,0,0,1,8.5,4.5,17.2,17.2,0,0,1,5.2,8,28.3,28.3,0,0,1,.9,7.4c0,1.4-.1,2.9-.2,4.4a32.8,32.8,0,0,1-3.1,10.3,24.5,24.5,0,0,1-5.6,7.4,26.3,26.3,0,0,1-7.7,4.8,38.2,38.2,0,0,1-9.1,2.5L758,121.6H741.4L720.8,89.2h-10l-4.5,32.4H692.6L704.3,38Zm-5.5,39.3c4.8,0,8.7-1,11.8-3.1s5-5.5,5.6-10.2a11,11,0,0,0,.2-2.5,10.9,10.9,0,0,0-.4-3.4,8.5,8.5,0,0,0-2.8-3.9,10.9,10.9,0,0,0-4.6-2.1,25.3,25.3,0,0,0-5-.4H716.1l-3.6,25.6Z" transform="translate(-18 -13)"/><polygon class="cls-1" points="117 139 27 139 0 101 0 36 27 0 117 0 144 38 143 99 117 139"/><path class="cls-2" d="M117.6,108a48.9,48.9,0,0,1-8.1,9.1,43.1,43.1,0,0,1-8.3,5.8,35.3,35.3,0,0,1-8.4,3,38.5,38.5,0,0,1-8,.9A39.4,39.4,0,0,1,72.9,125a28.4,28.4,0,0,1-9.8-5.4,23.1,23.1,0,0,1-6.2-9,26.1,26.1,0,0,1-1.1-12.4l4-28.8a29.8,29.8,0,0,1,4.6-12.5A32.4,32.4,0,0,1,73.2,48a38.6,38.6,0,0,1,11.4-5.4,45.7,45.7,0,0,1,12.6-1.8,35.3,35.3,0,0,1,7.8.9,28,28,0,0,1,7.6,3.2,22.8,22.8,0,0,1,6.6,5.9,28.3,28.3,0,0,1,4.6,9.2l-18.1,7a9.3,9.3,0,0,0-4.8-5.1,15.4,15.4,0,0,0-7.1-1.6,16.7,16.7,0,0,0-4.4.6,15.7,15.7,0,0,0-3.9,1.9,10,10,0,0,0-3,2.8A8.4,8.4,0,0,0,81,69.4L77,98.2a6.3,6.3,0,0,0,2.6,6.5,12,12,0,0,0,7.6,2.3,18.1,18.1,0,0,0,7.4-1.7c2.4-1.2-1.7-3.1-.3-5.8Z" transform="translate(-18 -13)"/></svg>